<svg xmlns="http://www.w3.org/2000/svg" xmlns:xlink="http://www.w3.org/1999/xlink">

  <!-- Icon-1 -->
  <symbol id="icon-1" width="57" height="25" viewBox="0 0 57 25" fill="none" xmlns="http://www.w3.org/2000/svg">
    <path
      d="M1.82959 16.2994C2.64483 21.517 5.05796 28.8216 8.18849 16.2994C10.6342 9.45136 11.1234 7.00563 12.5908 10.9188C14.0583 13.8537 14.5474 14.3428 16.0148 10.9188C17.4823 7.49478 17.9714 5.53819 19.4389 9.45137C20.9063 13.3645 20.9063 12.8754 22.8629 12.3862C24.8195 11.8971 25.7978 12.8754 26.2869 13.8537C26.7761 14.832 27.7544 15.3211 29.2218 13.8537C30.6892 12.3862 32.6458 11.8971 33.135 14.832C33.6241 17.7669 35.0916 21.68 36.0698 18.256C36.559 13.8537 37.0481 7.00563 40.4722 2.60331C41.9396 1.13587 42.9179 2.60331 42.9179 3.58161C42.9179 4.36424 43.8962 13.0384 44.3853 17.2777C44.7114 17.9299 45.7549 19.1365 47.3202 18.7451C48.2985 18.256 49.2768 17.7669 50.2551 18.7451C51.2334 19.7234 52.2117 20.2126 53.19 18.256C53.9726 16.6907 54.8205 14.6689 55.1466 13.8537"
      stroke="#017BFF"
      stroke-width="2"/>
  </symbol>
</svg>

<!-- Icon-1-shadow -->
<svg xmlns="http://www.w3.org/2000/svg" xmlns:xlink="http://www.w3.org/1999/xlink">
  <symbol id="icon-1-shadow" width="67" height="49" viewBox="0 0 67 49" fill="none" xmlns="http://www.w3.org/2000/svg">
    <g filter="url(#filter0_f_47_1378)">
      <path
        d="M13.1885 21.2994C10.058 33.8216 7.64483 26.517 6.82959 21.2994V42.0047H60.1466V18.8537C59.8205 19.6689 58.9726 21.6907 58.19 23.256C57.2117 25.2126 56.2334 24.7234 55.2551 23.7451C54.2768 22.7668 53.2985 23.256 52.3202 23.7451C50.7549 24.1364 49.7114 22.9299 49.3853 22.2777C48.8962 18.0384 47.9179 9.36423 47.9179 8.5816C47.9179 7.6033 46.9396 6.13586 45.4722 7.6033C42.0481 12.0056 41.559 18.8537 41.0698 23.256C40.0915 26.68 38.6241 22.7668 38.135 19.832C37.6458 16.8971 35.6892 17.3862 34.2218 18.8537C32.7544 20.3211 31.7761 19.832 31.2869 18.8537C30.7978 17.8754 29.8195 16.8971 27.8629 17.3862C25.9063 17.8754 25.9063 18.3645 24.4389 14.4514C22.9714 10.5382 22.4823 12.4948 21.0148 15.9188C19.5474 19.3428 19.0583 18.8537 17.5908 15.9188C16.1234 12.0056 15.6342 14.4514 13.1885 21.2994Z"
        fill="url(#paint0_linear_47_1378)"
        fill-opacity="0.6"/>
    </g>
    <defs>b
      <filter id="filter0_f_47_1378" x="0.82959" y="0.982492" width="65.3169" height="47.0222" filterUnits="userSpaceOnUse" color-interpolation-filters="sRGB">
        <feFlood flood-opacity="0" result="BackgroundImageFix"/>
        <feBlend mode="normal" in="SourceGraphic" in2="BackgroundImageFix" result="shape"/>
        <feGaussianBlur stdDeviation="3" result="effect1_foregroundBlur_47_1378"/>
      </filter>
      <linearGradient id="paint0_linear_47_1378" x1="33.4881" y1="6.98249" x2="33.4881" y2="42.0047" gradientUnits="userSpaceOnUse">
        <stop stop-color="#017BFF"/>
        <stop offset="0.833333" stop-color="#017BFF" stop-opacity="0"/>
      </linearGradient>
    </defs>s
  </symbol>
</svg>

<!-- Icon-2 -->
<svg xmlns="http://www.w3.org/2000/svg" xmlns:xlink="http://www.w3.org/1999/xlink">
  <symbol id="icon-2" width="61" height="25" viewBox="0 0 61 25" fill="none" xmlns="http://www.w3.org/2000/svg">
    <path
      d="M1.54004 12.9755C1.54004 12.1939 2.29313 11.63 2.29313 10.7163C2.29313 9.71213 2.29313 8.70801 2.29313 7.70389C2.29313 6.8169 2.18912 6.04579 2.90676 5.43068C3.89582 4.58291 3.69519 4.71159 4.80343 5.38884C6.55554 6.45958 6.10096 8.67285 7.20215 10.0887C8.18207 11.3486 9.25064 13.1573 10.9676 12.585C12.8003 11.9741 15.2455 9.59309 16.1555 7.95492C17.4243 5.67123 19.6113 6.38966 20.9809 7.95492C21.479 8.52424 21.2405 9.66728 21.999 10.0887C22.7303 10.4949 24.2347 8.71762 24.7463 8.20595C25.8186 7.13374 26.6079 5.90004 27.5356 4.71943C28.0894 4.01451 29.0009 3.5438 29.5996 2.87854C30.5436 1.82965 30.8725 3.74071 31.6078 4.32894C32.4739 5.02178 33.4864 6.7633 33.6718 7.82941C33.858 8.89987 34.3228 10.6082 34.9549 11.5112C35.5473 12.3575 36.3911 14.3358 36.4332 15.43C36.4891 16.8833 37.0507 16.741 38.3298 16.741C39.4097 16.741 39.6524 16.7601 40.4636 17.3685C40.876 17.6778 41.8726 19.3111 42.2626 19.1955C43.7934 18.7419 44.3262 17.2098 44.6893 15.8484C44.8567 15.2205 44.688 14.5179 44.8427 13.8681C45.0135 13.1504 45.5495 12.6447 45.7213 11.9575C45.9482 11.0497 47.0667 8.97682 48.0363 10.521C49.7299 13.2182 50.4908 17.0932 50.4908 20.2693C50.4908 20.9625 50.7264 23.5256 51.997 22.9609C53.0757 22.4815 53.5857 20.1011 54.0192 19.1257C54.8454 17.2668 55.4305 15.4384 56.1251 13.5334C57.5655 9.58253 59.2769 5.47652 59.2769 1.17712"
      stroke="#FC794C"
      stroke-width="2"
      stroke-linecap="round"/>
  </symbol>
</svg>
